<?xml version="1.0" encoding="UTF-8" standalone="no"?>
<!-- Created with Inkscape (http://www.inkscape.org/) -->

<svg
   width="198.02986mm"
   height="198.02986mm"
   viewBox="0 0 198.02986 198.02986"
   version="1.1"
   id="svg320"
   xml:space="preserve"
   xmlns="http://www.w3.org/2000/svg"
   xmlns:svg="http://www.w3.org/2000/svg"><defs
     id="defs317" /><g
     id="layer1"
     style="display:inline"
     transform="translate(-0.98506922,-0.98506922)"><path
       style="fill:#3b585c;stroke:none;stroke-width:0.19803"
       d="m 146.14096,73.860058 c 9.59078,-8.833914 9.26364,-22.26826 8.31725,-34.259166 l -10.69361,1.386209 c 1.50582,8.110709 1.00441,18.428857 -4.29111,25.149792 -1.67018,2.119712 -3.96396,3.926338 -6.4025,5.085407 -1.10481,0.524977 -3.66177,0.914106 -4.35191,1.928613 -0.93529,1.375119 -0.96084,4.999462 -0.9949,6.650041 11.7097,2.175358 23.39584,3.168477 35.24931,3.168477 l 0.19803,14.45618 10.29756,-1.188179 -0.19803,-14.85224 c 1.21531,-0.09664 4.98659,-0.285361 5.73732,-1.299868 0.5028,-0.679242 0.0752,-1.90267 0.0232,-2.660729 -0.14318,-2.091789 -0.21566,-4.240809 -0.21566,-6.336955 -1.25372,0.02594 -4.85509,1.452153 -5.82148,0.638844 -0.53805,-0.452894 -0.29209,-1.603448 -0.35111,-2.223083 -0.18773,-1.972378 -0.18694,-3.974856 -0.41903,-5.940896 -1.00896,-8.551523 -1.55433,-17.341277 -1.92366,-25.941912 -2.45775,0.456261 -5.03808,0.413289 -7.52514,0.736275 -0.69191,0.08991 -2.29972,-0.0206 -2.76687,0.571317 -0.47586,0.602802 -0.0838,1.772763 -0.0204,2.454976 0.20853,2.243084 0.42537,4.500228 0.72301,6.733015 0.84024,6.304479 1.50978,12.856296 1.66523,19.208896 0.0333,1.358287 0.93134,5.164223 -0.11644,6.190018 -0.50933,0.498441 -1.59711,0.372296 -2.25694,0.459033 -2.20546,0.289718 -4.50855,0.281994 -6.73302,0.281994 -2.28883,0 -4.90064,0.134463 -7.12907,-0.396059 M 30.887578,37.818623 c 0,10.743912 1.621667,24.543029 -8.911344,31.348325 -1.378367,0.89054 -2.969952,1.685234 -4.554686,2.118722 l 0.378336,5.940895 0.221258,2.259719 2.370854,0.671717 6.138925,1.177684 15.446329,1.828806 10.891643,-0.591119 -0.39606,14.06012 c 2.45359,-0.311699 4.890743,-0.813705 7.327105,-1.237687 0.667756,-0.116244 2.117137,-0.128719 2.568843,-0.69152 0.578247,-0.720037 0.203179,-2.731228 0.203575,-3.615629 7.92e-4,-2.108226 0.234467,-4.235265 0.378237,-6.336956 0.06773,-0.986783 -0.169514,-2.212192 0.31764,-3.123327 0.869549,-1.626617 4.387549,-0.464578 5.727419,-1.466609 0.605972,-0.453092 0.477054,-1.48463 0.525373,-2.143079 0.140404,-1.915543 0.494085,-3.823957 0.576465,-5.742866 l -6.336955,0.594089 c 1.386011,-7.465329 1.52681,-15.814466 1.195902,-23.367523 -0.07862,-1.794745 0.568148,-6.127836 -0.607357,-7.576226 -0.537453,-0.662014 -2.753408,-0.505175 -3.558993,-0.550127 -3.106098,-0.17288 -6.195166,-0.974505 -9.307403,-0.983021 l 1.155306,8.713314 0.824992,16.238449 -0.19803,6.138925 -0.317442,2.256947 -4.435274,0.515471 -12.475882,-0.792119 c 1.735534,-2.463689 3.887525,-4.382995 5.295517,-7.129075 4.179222,-8.152295 4.675089,-18.256373 3.021738,-27.130091 L 30.887578,37.818623 m 70.894692,3.270265 c -5.626426,0.353484 -10.792629,1.668402 -15.248301,5.336905 -10.78134,8.876094 -16.039825,29.730619 -5.883665,40.892572 2.795587,3.072235 6.794008,5.071149 10.636381,6.479537 3.024709,1.108571 6.251011,2.066244 9.505435,1.827618 5.82742,-0.427547 11.38672,-5.806038 14.81263,-10.081701 8.80857,-10.993627 14.00091,-29.548431 1.02976,-39.762217 -1.91812,-1.510572 -4.02734,-2.620925 -6.33696,-3.407698 -2.65954,-0.905987 -5.69732,-1.462054 -8.51528,-1.285016 m -1.980301,8.470728 c 1.343241,-0.174465 2.834001,-0.12674 4.158631,0.141591 10.7952,2.18724 8.3628,16.509947 5.70722,23.960821 -0.5731,1.607804 -1.28442,3.278582 -2.14506,4.752717 -1.81316,3.106098 -4.45805,6.482309 -8.31488,6.896587 -6.735788,0.7238 -11.820006,-4.201005 -12.817483,-10.659155 -1.410765,-9.133137 2.6637,-23.695857 13.411572,-25.092561 m -13.268,69.055194 c 0,9.8908 2.422697,19.54237 3.706723,29.30842 0.657459,4.99966 0.691322,9.84208 0.649934,14.85223 h 11.683764 c 0,-8.47944 -1.40463,-16.37588 -2.40706,-24.75373 -0.372688,-3.11481 -0.698447,-7.14491 2.20903,-9.17888 2.96787,-2.07614 8.30062,-0.52458 11.68376,-0.52458 -0.29031,-2.29774 -0.68301,-4.61647 -0.7844,-6.93105 -0.0301,-0.68855 0.25962,-2.07357 -0.35269,-2.56884 -0.77113,-0.62379 -3.05599,-0.20357 -4.01169,-0.20357 -5.04164,0 -9.265616,2.01297 -10.49558,7.3271 h -0.198029 l -0.19803,-7.3271 H 86.533969 m -17.228598,9.90149 h -0.19803 l -0.792119,-7.9212 -9.901493,1.78227 c 1.057083,8.36439 1.550177,17.50664 0.972326,25.94192 -0.297837,4.35111 -1.181644,8.72321 -1.368386,13.06997 l 12.475881,0.79212 c 0.312095,-7.26968 0.497649,-14.29895 0.190307,-21.58526 -0.139611,-3.3069 -0.283975,-7.26571 2.384873,-9.68208 2.306652,-2.08842 6.7748,-1.82959 9.702671,-2.19971 -0.0083,-3.02728 -0.131887,-7.00412 -0.990149,-9.90149 -2.281106,0.54319 -4.703209,0.20397 -6.931045,1.11015 -3.600381,1.46423 -4.599441,5.2367 -5.544836,8.59331 m 107.530209,-0.79212 h -0.19802 l 0.19802,-6.73302 -10.09952,1.58424 -2.77242,36.63553 c 2.69895,-0.21308 5.43295,-0.41864 8.11923,-0.73549 0.67211,-0.0794 2.09951,0.21843 2.56884,-0.37407 0.38418,-0.48498 0.20358,-1.48265 0.20358,-2.05892 0,-1.5181 0.13941,-3.03718 0.20575,-4.55469 0.23447,-5.35235 0.24417,-11.21601 1.55572,-16.43648 0.66855,-2.66092 2.06367,-5.14481 4.77351,-6.1211 2.66271,-0.95926 5.91357,-0.985 8.71332,-1.206 l 0.19803,-8.51528 -0.19803,-0.19803 c -1.95832,0.36358 -4.021,0.31368 -5.9409,0.87905 -3.48909,1.02758 -6.48548,4.29071 -7.32711,7.83426 m -46.53701,-7.639 c -1.8599,0.25328 -3.63821,0.67508 -5.34681,1.47829 -7.13897,3.35542 -7.91228,11.35285 -7.13897,18.24053 1.11688,9.94922 5.14838,21.02206 16.24835,22.82215 1.74424,0.28279 3.7885,0.30833 5.54483,0.0927 5.0361,-0.61845 10.07596,-2.81995 13.64644,-6.48607 6.11199,-6.27636 8.61628,-17.77318 3.88633,-25.53813 C 152.328,122.7966 139.10496,118.8865 130.29857,120.08518 M 21.184115,141.58627 c 10.318148,0.0285 20.525399,3.56335 30.892658,3.56454 0.0048,-7.28849 -0.685975,-14.36133 -6.931045,-19.27445 -1.995943,-1.57018 -4.336062,-2.58508 -6.733015,-3.36631 -9.737921,-3.17402 -25.22946,-2.68706 -28.6296721,9.17473 -2.3862796,8.32458 -0.6362898,18.94353 6.8463871,24.15192 4.380025,3.04867 10.012588,3.96871 15.248299,3.96832 5.162837,-4e-4 10.985905,-0.74103 15.44633,-3.5279 1.591764,-0.99451 4.019016,-3.09204 4.064166,-5.17373 0.02396,-1.10244 -1.918711,-0.99669 -2.677957,-1.11848 -2.894207,-0.46497 -6.184869,-1.58839 -9.106404,-1.55156 -0.891728,0.0113 -1.366406,0.88262 -1.986239,1.40502 -0.843409,0.71093 -1.898512,1.18759 -2.967478,1.44344 -4.081197,0.97688 -9.825053,0.0677 -12.185173,-3.75464 -1.136097,-1.8401 -1.280857,-3.84139 -1.280857,-5.9409 m 19.802986,-3.76257 -19.208896,-2.77242 c 0.08396,-3.94039 3.87782,-5.54345 7.327104,-5.54483 5.434336,-0.002 11.881,1.84841 11.881792,8.31725 m 95.252359,-7.46553 c 4.55251,-0.67092 9.60366,1.31611 11.51029,5.68326 0.97886,2.2421 0.96658,4.53825 0.96559,6.93105 -0.002,5.126 -2.54131,10.81362 -8.11922,11.65722 -8.81352,1.33294 -10.49241,-9.63751 -9.93437,-16.21191 0.30497,-3.59226 1.41948,-7.44671 5.57771,-8.05962 z"
       id="path638" /></g></svg>
